<?xml version="1.0" encoding="us-ascii" standalone="no"?><svg xmlns="http://www.w3.org/2000/svg" xmlns:xlink="http://www.w3.org/1999/xlink" contentStyleType="text/css" height="923px" preserveAspectRatio="none" style="width:2162px;height:923px;background:#FFFFFF;" version="1.1" viewBox="0 0 2162 923" width="2162px" zoomAndPan="magnify"><defs/><g><!--class BorderCircle--><g id="elem_BorderCircle"><rect codeLine="4" fill="#F1F1F1" height="96.8906" id="BorderCircle" rx="2.5" ry="2.5" style="stroke:#181818;stroke-width:0.5;" width="215" x="7" y="819.91"/><ellipse cx="67.75" cy="835.91" fill="#ADD1B2" rx="11" ry="11" style="stroke:#181818;stroke-width:1.0;"/><path d="M70.7188,841.5506 Q70.1406,841.8475 69.5,841.9881 Q68.8594,842.1444 68.1563,842.1444 Q65.6563,842.1444 64.3281,840.5038 Q63.0156,838.8475 63.0156,835.7225 Q63.0156,832.5975 64.3281,830.9413 Q65.6563,829.285 68.1563,829.285 Q68.8594,829.285 69.5,829.4413 Q70.1563,829.5975 70.7188,829.8944 L70.7188,832.6131 Q70.0938,832.035 69.5,831.7694 Q68.9063,831.4881 68.2813,831.4881 Q66.9375,831.4881 66.25,832.5663 Q65.5625,833.6288 65.5625,835.7225 Q65.5625,837.8163 66.25,838.8944 Q66.9375,839.9569 68.2813,839.9569 Q68.9063,839.9569 69.5,839.6913 Q70.0938,839.41 70.7188,838.8319 L70.7188,841.5506 Z " fill="#000000"/><text fill="#000000" font-family="sans-serif" font-size="14" lengthAdjust="spacing" textLength="85" x="88.25" y="840.7567">BorderCircle</text><line style="stroke:#181818;stroke-width:0.5;" x1="8" x2="221" y1="851.91" y2="851.91"/><line style="stroke:#181818;stroke-width:0.5;" x1="8" x2="221" y1="859.91" y2="859.91"/><text fill="#000000" font-family="sans-serif" font-size="14" lengthAdjust="spacing" textLength="203" x="13" y="876.9051">+BorderCircle(Point, double):</text><text fill="#000000" font-family="sans-serif" font-size="14" lengthAdjust="spacing" textLength="188" x="13" y="893.202">#getRenderer() : Renderer</text><text fill="#000000" font-family="sans-serif" font-size="14" lengthAdjust="spacing" textLength="130" x="13" y="909.4989">+getColor() : Color</text></g><!--class BorderRenderer--><g id="elem_BorderRenderer"><rect codeLine="9" fill="#F1F1F1" height="129.4844" id="BorderRenderer" rx="2.5" ry="2.5" style="stroke:#181818;stroke-width:0.5;" width="290" x="911.5" y="359.46"/><ellipse cx="996.25" cy="375.46" fill="#ADD1B2" rx="11" ry="11" style="stroke:#181818;stroke-width:1.0;"/><path d="M999.2188,381.1006 Q998.6406,381.3975 998,381.5381 Q997.3594,381.6944 996.6563,381.6944 Q994.1563,381.6944 992.8281,380.0537 Q991.5156,378.3975 991.5156,375.2725 Q991.5156,372.1475 992.8281,370.4912 Q994.1563,368.835 996.6563,368.835 Q997.3594,368.835 998,368.9912 Q998.6563,369.1475 999.2188,369.4444 L999.2188,372.1631 Q998.5938,371.585 998,371.3194 Q997.4063,371.0381 996.7813,371.0381 Q995.4375,371.0381 994.75,372.1162 Q994.0625,373.1787 994.0625,375.2725 Q994.0625,377.3662 994.75,378.4444 Q995.4375,379.5069 996.7813,379.5069 Q997.4063,379.5069 998,379.2412 Q998.5938,378.96 999.2188,378.3819 L999.2188,381.1006 Z " fill="#000000"/><text fill="#000000" font-family="sans-serif" font-size="14" lengthAdjust="spacing" textLength="112" x="1016.75" y="380.3067">BorderRenderer</text><line style="stroke:#181818;stroke-width:0.5;" x1="912.5" x2="1200.5" y1="391.46" y2="391.46"/><text fill="#000000" font-family="sans-serif" font-size="14" lengthAdjust="spacing" text-decoration="underline" textLength="185" x="917.5" y="408.4551">-instance: BorderRenderer</text><text fill="#000000" font-family="sans-serif" font-size="14" lengthAdjust="spacing" text-decoration="underline" textLength="174" x="917.5" y="424.752">-STROKE_WIDTH = 2 : int</text><line style="stroke:#181818;stroke-width:0.5;" x1="912.5" x2="1200.5" y1="432.0537" y2="432.0537"/><text fill="#000000" font-family="sans-serif" font-size="14" lengthAdjust="spacing" textLength="132" x="917.5" y="449.0489">-BorderRenderer():</text><text fill="#000000" font-family="sans-serif" font-size="14" lengthAdjust="spacing" text-decoration="underline" textLength="229" x="917.5" y="465.3457">+getInstance() : BorderRenderer</text><text fill="#000000" font-family="sans-serif" font-size="14" lengthAdjust="spacing" textLength="278" x="917.5" y="481.6426">+display(Graphics2D, Bounceable): void</text></g><!--class BorderShapeFactory--><g id="elem_BorderShapeFactory"><rect codeLine="16" fill="#F1F1F1" height="129.4844" id="BorderShapeFactory" rx="2.5" ry="2.5" style="stroke:#181818;stroke-width:0.5;" width="279" x="1562" y="359.46"/><ellipse cx="1626.75" cy="375.46" fill="#ADD1B2" rx="11" ry="11" style="stroke:#181818;stroke-width:1.0;"/><path d="M1629.7188,381.1006 Q1629.1406,381.3975 1628.5,381.5381 Q1627.8594,381.6944 1627.1563,381.6944 Q1624.6563,381.6944 1623.3281,380.0537 Q1622.0156,378.3975 1622.0156,375.2725 Q1622.0156,372.1475 1623.3281,370.4912 Q1624.6563,368.835 1627.1563,368.835 Q1627.8594,368.835 1628.5,368.9912 Q1629.1563,369.1475 1629.7188,369.4444 L1629.7188,372.1631 Q1629.0938,371.585 1628.5,371.3194 Q1627.9063,371.0381 1627.2813,371.0381 Q1625.9375,371.0381 1625.25,372.1162 Q1624.5625,373.1787 1624.5625,375.2725 Q1624.5625,377.3662 1625.25,378.4444 Q1625.9375,379.5069 1627.2813,379.5069 Q1627.9063,379.5069 1628.5,379.2412 Q1629.0938,378.96 1629.7188,378.3819 L1629.7188,381.1006 Z " fill="#000000"/><text fill="#000000" font-family="sans-serif" font-size="14" lengthAdjust="spacing" textLength="141" x="1647.25" y="380.3067">BorderShapeFactory</text><line style="stroke:#181818;stroke-width:0.5;" x1="1563" x2="1840" y1="391.46" y2="391.46"/><text fill="#000000" font-family="sans-serif" font-size="14" lengthAdjust="spacing" text-decoration="underline" textLength="214" x="1568" y="408.4551">-instance: BorderShapeFactory</text><line style="stroke:#181818;stroke-width:0.5;" x1="1563" x2="1840" y1="415.7569" y2="415.7569"/><text fill="#000000" font-family="sans-serif" font-size="14" lengthAdjust="spacing" textLength="161" x="1568" y="432.752">-BorderShapeFactory():</text><text fill="#000000" font-family="sans-serif" font-size="14" lengthAdjust="spacing" text-decoration="underline" textLength="258" x="1568" y="449.0489">+getInstance() : BorderShapeFactory</text><text fill="#000000" font-family="sans-serif" font-size="14" lengthAdjust="spacing" textLength="256" x="1568" y="465.3457">+createCircle(Point, int): Bounceable</text><text fill="#000000" font-family="sans-serif" font-size="14" lengthAdjust="spacing" textLength="267" x="1568" y="481.6426">+createSquare(Point, int): Bounceable</text></g><!--class BorderSquare--><g id="elem_BorderSquare"><rect codeLine="23" fill="#F1F1F1" height="96.8906" id="BorderSquare" rx="2.5" ry="2.5" style="stroke:#181818;stroke-width:0.5;" width="200" x="494.5" y="819.91"/><ellipse cx="542.25" cy="835.91" fill="#ADD1B2" rx="11" ry="11" style="stroke:#181818;stroke-width:1.0;"/><path d="M545.2188,841.5506 Q544.6406,841.8475 544,841.9881 Q543.3594,842.1444 542.6563,842.1444 Q540.1563,842.1444 538.8281,840.5038 Q537.5156,838.8475 537.5156,835.7225 Q537.5156,832.5975 538.8281,830.9413 Q540.1563,829.285 542.6563,829.285 Q543.3594,829.285 544,829.4413 Q544.6563,829.5975 545.2188,829.8944 L545.2188,832.6131 Q544.5938,832.035 544,831.7694 Q543.4063,831.4881 542.7813,831.4881 Q541.4375,831.4881 540.75,832.5663 Q540.0625,833.6288 540.0625,835.7225 Q540.0625,837.8163 540.75,838.8944 Q541.4375,839.9569 542.7813,839.9569 Q543.4063,839.9569 544,839.6913 Q544.5938,839.41 545.2188,838.8319 L545.2188,841.5506 Z " fill="#000000"/><text fill="#000000" font-family="sans-serif" font-size="14" lengthAdjust="spacing" textLength="96" x="562.75" y="840.7567">BorderSquare</text><line style="stroke:#181818;stroke-width:0.5;" x1="495.5" x2="693.5" y1="851.91" y2="851.91"/><line style="stroke:#181818;stroke-width:0.5;" x1="495.5" x2="693.5" y1="859.91" y2="859.91"/><text fill="#000000" font-family="sans-serif" font-size="14" lengthAdjust="spacing" textLength="183" x="500.5" y="876.9051">+BorderSquare(Point, int):</text><text fill="#000000" font-family="sans-serif" font-size="14" lengthAdjust="spacing" textLength="188" x="500.5" y="893.202">#getRenderer() : Renderer</text><text fill="#000000" font-family="sans-serif" font-size="14" lengthAdjust="spacing" textLength="130" x="500.5" y="909.4989">+getColor() : Color</text></g><!--class Bounceable--><g id="elem_Bounceable"><rect codeLine="28" fill="#F1F1F1" height="154.0469" id="Bounceable" rx="2.5" ry="2.5" style="stroke:#181818;stroke-width:0.5;" width="163" x="169" y="347.18"/><ellipse cx="205.6" cy="367.3128" fill="#B4A7E5" rx="11" ry="11" style="stroke:#181818;stroke-width:1.0;"/><path d="M201.5219,363.0784 L201.5219,360.9222 L208.9125,360.9222 L208.9125,363.0784 L206.4438,363.0784 L206.4438,371.1566 L208.9125,371.1566 L208.9125,373.3128 L201.5219,373.3128 L201.5219,371.1566 L203.9906,371.1566 L203.9906,363.0784 L201.5219,363.0784 Z " fill="#000000"/><text fill="#000000" font-family="sans-serif" font-size="12" font-style="italic" lengthAdjust="spacing" textLength="70" x="230.9" y="363.3187">&#171;interface&#187;</text><text fill="#000000" font-family="sans-serif" font-size="14" font-style="italic" lengthAdjust="spacing" textLength="83" x="224.4" y="379.1439">Bounceable</text><line style="stroke:#181818;stroke-width:0.5;" x1="170" x2="331" y1="387.4456" y2="387.4456"/><line style="stroke:#181818;stroke-width:0.5;" x1="170" x2="331" y1="395.4456" y2="395.4456"/><text fill="#000000" font-family="sans-serif" font-size="14" lengthAdjust="spacing" textLength="92" x="175" y="412.4407">+draw(): void</text><text fill="#000000" font-family="sans-serif" font-size="14" lengthAdjust="spacing" textLength="97" x="175" y="428.7376">+move(): void</text><text fill="#000000" font-family="sans-serif" font-size="14" lengthAdjust="spacing" textLength="130" x="175" y="445.0345">+getColor() : Color</text><text fill="#000000" font-family="sans-serif" font-size="14" lengthAdjust="spacing" textLength="146" x="175" y="461.3314">+getShape() : Shape</text><text fill="#000000" font-family="sans-serif" font-size="14" lengthAdjust="spacing" textLength="145" x="175" y="477.6282">+getWidth() : double</text><text fill="#000000" font-family="sans-serif" font-size="14" lengthAdjust="spacing" textLength="151" x="175" y="493.9251">+getHeight() : double</text></g><!--class BounceableObject--><g id="elem_BounceableObject"><rect codeLine="36" fill="#F1F1F1" height="259.8594" id="BounceableObject" rx="2.5" ry="2.5" style="stroke:#181818;stroke-width:0.5;" width="218" x="367.5" y="294.27"/><ellipse cx="408.6" cy="310.27" fill="#A9DCDF" rx="11" ry="11" style="stroke:#181818;stroke-width:1.0;"/><path d="M408.7094,305.6138 L407.5531,310.6919 L409.8813,310.6919 L408.7094,305.6138 Z M407.225,303.3794 L410.2094,303.3794 L413.5688,315.77 L411.1156,315.77 L410.35,312.7075 L407.0688,312.7075 L406.3188,315.77 L403.8813,315.77 L407.225,303.3794 Z " fill="#000000"/><text fill="#000000" font-family="sans-serif" font-size="14" font-style="italic" lengthAdjust="spacing" textLength="128" x="428.4" y="315.1167">BounceableObject</text><line style="stroke:#181818;stroke-width:0.5;" x1="368.5" x2="584.5" y1="326.27" y2="326.27"/><text fill="#000000" font-family="sans-serif" font-size="14" lengthAdjust="spacing" text-decoration="underline" textLength="206" x="373.5" y="343.2651">-SPEED_MULTIPLIER = 10 : int</text><text fill="#000000" font-family="sans-serif" font-size="14" lengthAdjust="spacing" textLength="86" x="373.5" y="359.562">#pos : Point</text><text fill="#000000" font-family="sans-serif" font-size="14" lengthAdjust="spacing" textLength="113" x="373.5" y="375.8589">-direction : Point</text><text fill="#000000" font-family="sans-serif" font-size="14" lengthAdjust="spacing" textLength="102" x="373.5" y="392.1557">-maxWidth : int</text><text fill="#000000" font-family="sans-serif" font-size="14" lengthAdjust="spacing" textLength="108" x="373.5" y="408.4526">-maxHeight : int</text><line style="stroke:#181818;stroke-width:0.5;" x1="368.5" x2="584.5" y1="415.7544" y2="415.7544"/><text fill="#000000" font-family="sans-serif" font-size="14" lengthAdjust="spacing" textLength="190" x="373.5" y="432.7495">#BounceableObject(Point):</text><text fill="#000000" font-family="sans-serif" font-size="14" lengthAdjust="spacing" textLength="152" x="373.5" y="449.0464">-bounceResize(): void</text><text fill="#000000" font-family="sans-serif" font-size="14" lengthAdjust="spacing" textLength="144" x="373.5" y="465.3432">-bounceLimits(): void</text><text fill="#000000" font-family="sans-serif" font-size="14" lengthAdjust="spacing" textLength="92" x="373.5" y="481.6401">+draw(): void</text><text fill="#000000" font-family="sans-serif" font-size="14" lengthAdjust="spacing" textLength="97" x="373.5" y="497.937">+move(): void</text><text fill="#000000" font-family="sans-serif" font-size="14" font-style="italic" lengthAdjust="spacing" textLength="188" x="373.5" y="514.2339">+getRenderer() : Renderer</text><text fill="#000000" font-family="sans-serif" font-size="14" font-style="italic" lengthAdjust="spacing" textLength="130" x="373.5" y="530.5307">+getColor() : Color</text><text fill="#000000" font-family="sans-serif" font-size="14" font-style="italic" lengthAdjust="spacing" textLength="146" x="373.5" y="546.8276">+getShape() : Shape</text></g><!--class Bouncers--><g id="elem_Bouncers"><rect codeLine="51" fill="#F1F1F1" height="210.9688" id="Bouncers" rx="2.5" ry="2.5" style="stroke:#181818;stroke-width:0.5;" width="273" x="225" y="7"/><ellipse cx="323.75" cy="23" fill="#ADD1B2" rx="11" ry="11" style="stroke:#181818;stroke-width:1.0;"/><path d="M326.7188,28.6406 Q326.1406,28.9375 325.5,29.0781 Q324.8594,29.2344 324.1563,29.2344 Q321.6563,29.2344 320.3281,27.5938 Q319.0156,25.9375 319.0156,22.8125 Q319.0156,19.6875 320.3281,18.0313 Q321.6563,16.375 324.1563,16.375 Q324.8594,16.375 325.5,16.5313 Q326.1563,16.6875 326.7188,16.9844 L326.7188,19.7031 Q326.0938,19.125 325.5,18.8594 Q324.9063,18.5781 324.2813,18.5781 Q322.9375,18.5781 322.25,19.6563 Q321.5625,20.7188 321.5625,22.8125 Q321.5625,24.9063 322.25,25.9844 Q322.9375,27.0469 324.2813,27.0469 Q324.9063,27.0469 325.5,26.7813 Q326.0938,26.5 326.7188,25.9219 L326.7188,28.6406 Z " fill="#000000"/><text fill="#000000" font-family="sans-serif" font-size="14" lengthAdjust="spacing" textLength="67" x="344.25" y="27.8467">Bouncers</text><line style="stroke:#181818;stroke-width:0.5;" x1="226" x2="497" y1="39" y2="39"/><text fill="#000000" font-family="sans-serif" font-size="14" lengthAdjust="spacing" text-decoration="underline" textLength="241" x="231" y="55.9951">-NUM_SHAPES_CREATED = 10 : int</text><text fill="#000000" font-family="sans-serif" font-size="14" lengthAdjust="spacing" text-decoration="underline" textLength="141" x="231" y="72.292">-MAX_SIZE = 50 : int</text><text fill="#000000" font-family="sans-serif" font-size="14" lengthAdjust="spacing" text-decoration="underline" textLength="136" x="231" y="88.5889">-MIN_SIZE = 10 : int</text><text fill="#000000" font-family="sans-serif" font-size="14" lengthAdjust="spacing" text-decoration="underline" textLength="168" x="231" y="104.8857">-TIMER_DELAY = 16 : int</text><text fill="#000000" font-family="sans-serif" font-size="14" lengthAdjust="spacing" textLength="129" x="231" y="121.1826">-random : Random</text><line style="stroke:#181818;stroke-width:0.5;" x1="226" x2="497" y1="128.4844" y2="128.4844"/><text fill="#000000" font-family="sans-serif" font-size="14" lengthAdjust="spacing" textLength="94" x="231" y="145.4795">+Bouncers():</text><text fill="#000000" font-family="sans-serif" font-size="14" lengthAdjust="spacing" textLength="261" x="231" y="161.7764">-generateShapes(ShapeFactory): void</text><text fill="#000000" font-family="sans-serif" font-size="14" lengthAdjust="spacing" textLength="82" x="231" y="178.0732">+run(): void</text><text fill="#000000" font-family="sans-serif" font-size="14" lengthAdjust="spacing" textLength="180" x="231" y="194.3701">-handleKeyPress(int): void</text><text fill="#000000" font-family="sans-serif" font-size="14" lengthAdjust="spacing" text-decoration="underline" textLength="142" x="231" y="210.667">+main(String[]): void</text></g><!--class Circle--><g id="elem_Circle"><rect codeLine="64" fill="#F1F1F1" height="129.4844" id="Circle" rx="2.5" ry="2.5" style="stroke:#181818;stroke-width:0.5;" width="168" x="274.5" y="630.43"/><ellipse cx="335.25" cy="646.43" fill="#A9DCDF" rx="11" ry="11" style="stroke:#181818;stroke-width:1.0;"/><path d="M335.3594,641.7738 L334.2031,646.8519 L336.5313,646.8519 L335.3594,641.7738 Z M333.875,639.5394 L336.8594,639.5394 L340.2188,651.93 L337.7656,651.93 L337,648.8675 L333.7188,648.8675 L332.9688,651.93 L330.5313,651.93 L333.875,639.5394 Z " fill="#000000"/><text fill="#000000" font-family="sans-serif" font-size="14" font-style="italic" lengthAdjust="spacing" textLength="38" x="355.75" y="651.2767">Circle</text><line style="stroke:#181818;stroke-width:0.5;" x1="275.5" x2="441.5" y1="662.43" y2="662.43"/><text fill="#000000" font-family="sans-serif" font-size="14" lengthAdjust="spacing" textLength="127" x="280.5" y="679.4251">-diameter : double</text><line style="stroke:#181818;stroke-width:0.5;" x1="275.5" x2="441.5" y1="686.7269" y2="686.7269"/><text fill="#000000" font-family="sans-serif" font-size="14" lengthAdjust="spacing" textLength="156" x="280.5" y="703.722">+Circle(Point, double):</text><text fill="#000000" font-family="sans-serif" font-size="14" lengthAdjust="spacing" textLength="145" x="280.5" y="720.0189">+getWidth() : double</text><text fill="#000000" font-family="sans-serif" font-size="14" lengthAdjust="spacing" textLength="151" x="280.5" y="736.3157">+getHeight() : double</text><text fill="#000000" font-family="sans-serif" font-size="14" lengthAdjust="spacing" textLength="146" x="280.5" y="752.6126">+getShape() : Shape</text></g><!--class Displayer--><g id="elem_Displayer"><rect codeLine="72" fill="#F1F1F1" height="137.75" id="Displayer" rx="2.5" ry="2.5" style="stroke:#181818;stroke-width:0.5;" width="212" x="642.5" y="43.61"/><ellipse cx="711.25" cy="63.7428" fill="#B4A7E5" rx="11" ry="11" style="stroke:#181818;stroke-width:1.0;"/><path d="M707.1719,59.5084 L707.1719,57.3522 L714.5625,57.3522 L714.5625,59.5084 L712.0938,59.5084 L712.0938,67.5866 L714.5625,67.5866 L714.5625,69.7428 L707.1719,69.7428 L707.1719,67.5866 L709.6406,67.5866 L709.6406,59.5084 L707.1719,59.5084 Z " fill="#000000"/><text fill="#000000" font-family="sans-serif" font-size="12" font-style="italic" lengthAdjust="spacing" textLength="70" x="729.75" y="59.7487">&#171;interface&#187;</text><text fill="#000000" font-family="sans-serif" font-size="14" font-style="italic" lengthAdjust="spacing" textLength="63" x="733.25" y="75.5739">Displayer</text><line style="stroke:#181818;stroke-width:0.5;" x1="643.5" x2="853.5" y1="83.8756" y2="83.8756"/><line style="stroke:#181818;stroke-width:0.5;" x1="643.5" x2="853.5" y1="91.8756" y2="91.8756"/><text fill="#000000" font-family="sans-serif" font-size="14" lengthAdjust="spacing" textLength="107" x="648.5" y="108.8707">+repaint(): void</text><text fill="#000000" font-family="sans-serif" font-size="14" lengthAdjust="spacing" textLength="114" x="648.5" y="125.1676">+getWidth() : int</text><text fill="#000000" font-family="sans-serif" font-size="14" lengthAdjust="spacing" textLength="166" x="648.5" y="141.4645">+setTitle(String) : String</text><text fill="#000000" font-family="sans-serif" font-size="14" lengthAdjust="spacing" textLength="200" x="648.5" y="157.7614">+getGraphics() : Graphics2D</text><text fill="#000000" font-family="sans-serif" font-size="14" lengthAdjust="spacing" textLength="120" x="648.5" y="174.0582">+getHeight() : int</text></g><!--class FilledCircle--><g id="elem_FilledCircle"><rect codeLine="80" fill="#F1F1F1" height="96.8906" id="FilledCircle" rx="2.5" ry="2.5" style="stroke:#181818;stroke-width:0.5;" width="203" x="257" y="819.91"/><ellipse cx="317.75" cy="835.91" fill="#ADD1B2" rx="11" ry="11" style="stroke:#181818;stroke-width:1.0;"/><path d="M320.7188,841.5506 Q320.1406,841.8475 319.5,841.9881 Q318.8594,842.1444 318.1563,842.1444 Q315.6563,842.1444 314.3281,840.5038 Q313.0156,838.8475 313.0156,835.7225 Q313.0156,832.5975 314.3281,830.9413 Q315.6563,829.285 318.1563,829.285 Q318.8594,829.285 319.5,829.4413 Q320.1563,829.5975 320.7188,829.8944 L320.7188,832.6131 Q320.0938,832.035 319.5,831.7694 Q318.9063,831.4881 318.2813,831.4881 Q316.9375,831.4881 316.25,832.5663 Q315.5625,833.6288 315.5625,835.7225 Q315.5625,837.8163 316.25,838.8944 Q316.9375,839.9569 318.2813,839.9569 Q318.9063,839.9569 319.5,839.6913 Q320.0938,839.41 320.7188,838.8319 L320.7188,841.5506 Z " fill="#000000"/><text fill="#000000" font-family="sans-serif" font-size="14" lengthAdjust="spacing" textLength="73" x="338.25" y="840.7567">FilledCircle</text><line style="stroke:#181818;stroke-width:0.5;" x1="258" x2="459" y1="851.91" y2="851.91"/><line style="stroke:#181818;stroke-width:0.5;" x1="258" x2="459" y1="859.91" y2="859.91"/><text fill="#000000" font-family="sans-serif" font-size="14" lengthAdjust="spacing" textLength="191" x="263" y="876.9051">+FilledCircle(Point, double):</text><text fill="#000000" font-family="sans-serif" font-size="14" lengthAdjust="spacing" textLength="188" x="263" y="893.202">#getRenderer() : Renderer</text><text fill="#000000" font-family="sans-serif" font-size="14" lengthAdjust="spacing" textLength="130" x="263" y="909.4989">+getColor() : Color</text></g><!--class FilledRenderer--><g id="elem_FilledRenderer"><rect codeLine="86" fill="#F1F1F1" height="113.1875" id="FilledRenderer" rx="2.5" ry="2.5" style="stroke:#181818;stroke-width:0.5;" width="290" x="1236.5" y="367.6"/><ellipse cx="1327.25" cy="383.6" fill="#ADD1B2" rx="11" ry="11" style="stroke:#181818;stroke-width:1.0;"/><path d="M1330.2188,389.2406 Q1329.6406,389.5375 1329,389.6781 Q1328.3594,389.8344 1327.6563,389.8344 Q1325.1563,389.8344 1323.8281,388.1937 Q1322.5156,386.5375 1322.5156,383.4125 Q1322.5156,380.2875 1323.8281,378.6312 Q1325.1563,376.975 1327.6563,376.975 Q1328.3594,376.975 1329,377.1312 Q1329.6563,377.2875 1330.2188,377.5844 L1330.2188,380.3031 Q1329.5938,379.725 1329,379.4594 Q1328.4063,379.1781 1327.7813,379.1781 Q1326.4375,379.1781 1325.75,380.2562 Q1325.0625,381.3187 1325.0625,383.4125 Q1325.0625,385.5062 1325.75,386.5844 Q1326.4375,387.6469 1327.7813,387.6469 Q1328.4063,387.6469 1329,387.3812 Q1329.5938,387.1 1330.2188,386.5219 L1330.2188,389.2406 Z " fill="#000000"/><text fill="#000000" font-family="sans-serif" font-size="14" lengthAdjust="spacing" textLength="100" x="1347.75" y="388.4467">FilledRenderer</text><line style="stroke:#181818;stroke-width:0.5;" x1="1237.5" x2="1525.5" y1="399.6" y2="399.6"/><text fill="#000000" font-family="sans-serif" font-size="14" lengthAdjust="spacing" text-decoration="underline" textLength="173" x="1242.5" y="416.5951">-instance: FilledRenderer</text><line style="stroke:#181818;stroke-width:0.5;" x1="1237.5" x2="1525.5" y1="423.8969" y2="423.8969"/><text fill="#000000" font-family="sans-serif" font-size="14" lengthAdjust="spacing" textLength="120" x="1242.5" y="440.892">-FilledRenderer():</text><text fill="#000000" font-family="sans-serif" font-size="14" lengthAdjust="spacing" textLength="278" x="1242.5" y="457.1889">+display(Graphics2D, Bounceable): void</text><text fill="#000000" font-family="sans-serif" font-size="14" lengthAdjust="spacing" text-decoration="underline" textLength="217" x="1242.5" y="473.4857">+getInstance() : FilledRenderer</text></g><!--class FilledShapeFactory--><g id="elem_FilledShapeFactory"><rect codeLine="93" fill="#F1F1F1" height="129.4844" id="FilledShapeFactory" rx="2.5" ry="2.5" style="stroke:#181818;stroke-width:0.5;" width="279" x="1876" y="359.46"/><ellipse cx="1946.75" cy="375.46" fill="#ADD1B2" rx="11" ry="11" style="stroke:#181818;stroke-width:1.0;"/><path d="M1949.7188,381.1006 Q1949.1406,381.3975 1948.5,381.5381 Q1947.8594,381.6944 1947.1563,381.6944 Q1944.6563,381.6944 1943.3281,380.0537 Q1942.0156,378.3975 1942.0156,375.2725 Q1942.0156,372.1475 1943.3281,370.4912 Q1944.6563,368.835 1947.1563,368.835 Q1947.8594,368.835 1948.5,368.9912 Q1949.1563,369.1475 1949.7188,369.4444 L1949.7188,372.1631 Q1949.0938,371.585 1948.5,371.3194 Q1947.9063,371.0381 1947.2813,371.0381 Q1945.9375,371.0381 1945.25,372.1162 Q1944.5625,373.1787 1944.5625,375.2725 Q1944.5625,377.3662 1945.25,378.4444 Q1945.9375,379.5069 1947.2813,379.5069 Q1947.9063,379.5069 1948.5,379.2412 Q1949.0938,378.96 1949.7188,378.3819 L1949.7188,381.1006 Z " fill="#000000"/><text fill="#000000" font-family="sans-serif" font-size="14" lengthAdjust="spacing" textLength="129" x="1967.25" y="380.3067">FilledShapeFactory</text><line style="stroke:#181818;stroke-width:0.5;" x1="1877" x2="2154" y1="391.46" y2="391.46"/><text fill="#000000" font-family="sans-serif" font-size="14" lengthAdjust="spacing" text-decoration="underline" textLength="202" x="1882" y="408.4551">-instance: FilledShapeFactory</text><line style="stroke:#181818;stroke-width:0.5;" x1="1877" x2="2154" y1="415.7569" y2="415.7569"/><text fill="#000000" font-family="sans-serif" font-size="14" lengthAdjust="spacing" textLength="149" x="1882" y="432.752">-FilledShapeFactory():</text><text fill="#000000" font-family="sans-serif" font-size="14" lengthAdjust="spacing" textLength="256" x="1882" y="449.0489">+createCircle(Point, int): Bounceable</text><text fill="#000000" font-family="sans-serif" font-size="14" lengthAdjust="spacing" textLength="267" x="1882" y="465.3457">+createSquare(Point, int): Bounceable</text><text fill="#000000" font-family="sans-serif" font-size="14" lengthAdjust="spacing" text-decoration="underline" textLength="246" x="1882" y="481.6426">+getInstance() : FilledShapeFactory</text></g><!--class FilledSquare--><g id="elem_FilledSquare"><rect codeLine="100" fill="#F1F1F1" height="96.8906" id="FilledSquare" rx="2.5" ry="2.5" style="stroke:#181818;stroke-width:0.5;" width="200" x="729.5" y="819.91"/><ellipse cx="783.25" cy="835.91" fill="#ADD1B2" rx="11" ry="11" style="stroke:#181818;stroke-width:1.0;"/><path d="M786.2188,841.5506 Q785.6406,841.8475 785,841.9881 Q784.3594,842.1444 783.6563,842.1444 Q781.1563,842.1444 779.8281,840.5038 Q778.5156,838.8475 778.5156,835.7225 Q778.5156,832.5975 779.8281,830.9413 Q781.1563,829.285 783.6563,829.285 Q784.3594,829.285 785,829.4413 Q785.6563,829.5975 786.2188,829.8944 L786.2188,832.6131 Q785.5938,832.035 785,831.7694 Q784.4063,831.4881 783.7813,831.4881 Q782.4375,831.4881 781.75,832.5663 Q781.0625,833.6288 781.0625,835.7225 Q781.0625,837.8163 781.75,838.8944 Q782.4375,839.9569 783.7813,839.9569 Q784.4063,839.9569 785,839.6913 Q785.5938,839.41 786.2188,838.8319 L786.2188,841.5506 Z " fill="#000000"/><text fill="#000000" font-family="sans-serif" font-size="14" lengthAdjust="spacing" textLength="84" x="803.75" y="840.7567">FilledSquare</text><line style="stroke:#181818;stroke-width:0.5;" x1="730.5" x2="928.5" y1="851.91" y2="851.91"/><line style="stroke:#181818;stroke-width:0.5;" x1="730.5" x2="928.5" y1="859.91" y2="859.91"/><text fill="#000000" font-family="sans-serif" font-size="14" lengthAdjust="spacing" textLength="171" x="735.5" y="876.9051">+FilledSquare(Point, int):</text><text fill="#000000" font-family="sans-serif" font-size="14" lengthAdjust="spacing" textLength="188" x="735.5" y="893.202">#getRenderer() : Renderer</text><text fill="#000000" font-family="sans-serif" font-size="14" lengthAdjust="spacing" textLength="130" x="735.5" y="909.4989">+getColor() : Color</text></g><!--class Renderer--><g id="elem_Renderer"><rect codeLine="106" fill="#F1F1F1" height="72.5625" id="Renderer" rx="2.5" ry="2.5" style="stroke:#181818;stroke-width:0.5;" width="290" x="1073.5" y="76.21"/><ellipse cx="1181.25" cy="96.3428" fill="#B4A7E5" rx="11" ry="11" style="stroke:#181818;stroke-width:1.0;"/><path d="M1177.1719,92.1084 L1177.1719,89.9522 L1184.5625,89.9522 L1184.5625,92.1084 L1182.0938,92.1084 L1182.0938,100.1866 L1184.5625,100.1866 L1184.5625,102.3428 L1177.1719,102.3428 L1177.1719,100.1866 L1179.6406,100.1866 L1179.6406,92.1084 L1177.1719,92.1084 Z " fill="#000000"/><text fill="#000000" font-family="sans-serif" font-size="12" font-style="italic" lengthAdjust="spacing" textLength="70" x="1199.75" y="92.3487">&#171;interface&#187;</text><text fill="#000000" font-family="sans-serif" font-size="14" font-style="italic" lengthAdjust="spacing" textLength="65" x="1202.25" y="108.1739">Renderer</text><line style="stroke:#181818;stroke-width:0.5;" x1="1074.5" x2="1362.5" y1="116.4756" y2="116.4756"/><line style="stroke:#181818;stroke-width:0.5;" x1="1074.5" x2="1362.5" y1="124.4756" y2="124.4756"/><text fill="#000000" font-family="sans-serif" font-size="14" lengthAdjust="spacing" textLength="278" x="1079.5" y="141.4707">+display(Graphics2D, Bounceable): void</text></g><!--class ShapeDisplay--><g id="elem_ShapeDisplay"><rect codeLine="110" fill="#F1F1F1" height="292.4531" id="ShapeDisplay" rx="2.5" ry="2.5" style="stroke:#181818;stroke-width:0.5;" width="256" x="620.5" y="277.97"/><ellipse cx="697.75" cy="293.97" fill="#ADD1B2" rx="11" ry="11" style="stroke:#181818;stroke-width:1.0;"/><path d="M700.7188,299.6106 Q700.1406,299.9075 699.5,300.0481 Q698.8594,300.2044 698.1563,300.2044 Q695.6563,300.2044 694.3281,298.5637 Q693.0156,296.9075 693.0156,293.7825 Q693.0156,290.6575 694.3281,289.0012 Q695.6563,287.345 698.1563,287.345 Q698.8594,287.345 699.5,287.5012 Q700.1563,287.6575 700.7188,287.9544 L700.7188,290.6731 Q700.0938,290.095 699.5,289.8294 Q698.9063,289.5481 698.2813,289.5481 Q696.9375,289.5481 696.25,290.6262 Q695.5625,291.6887 695.5625,293.7825 Q695.5625,295.8762 696.25,296.9544 Q696.9375,298.0169 698.2813,298.0169 Q698.9063,298.0169 699.5,297.7512 Q700.0938,297.47 700.7188,296.8919 L700.7188,299.6106 Z " fill="#000000"/><text fill="#000000" font-family="sans-serif" font-size="14" lengthAdjust="spacing" textLength="93" x="718.25" y="298.8167">ShapeDisplay</text><line style="stroke:#181818;stroke-width:0.5;" x1="621.5" x2="875.5" y1="309.97" y2="309.97"/><text fill="#000000" font-family="sans-serif" font-size="14" lengthAdjust="spacing" text-decoration="underline" textLength="134" x="626.5" y="326.9651">-HEIGHT = 600 : int</text><text fill="#000000" font-family="sans-serif" font-size="14" lengthAdjust="spacing" text-decoration="underline" textLength="128" x="626.5" y="343.262">-WIDTH = 600 : int</text><text fill="#000000" font-family="sans-serif" font-size="14" lengthAdjust="spacing" text-decoration="underline" textLength="166" x="626.5" y="359.5589">-instance: ShapeDisplay</text><text fill="#000000" font-family="sans-serif" font-size="14" lengthAdjust="spacing" textLength="103" x="626.5" y="375.8557">-frame : JFrame</text><text fill="#000000" font-family="sans-serif" font-size="14" lengthAdjust="spacing" textLength="102" x="626.5" y="392.1526">-image : Image</text><line style="stroke:#181818;stroke-width:0.5;" x1="621.5" x2="875.5" y1="399.4544" y2="399.4544"/><text fill="#000000" font-family="sans-serif" font-size="14" lengthAdjust="spacing" textLength="113" x="626.5" y="416.4495">-ShapeDisplay():</text><text fill="#000000" font-family="sans-serif" font-size="14" lengthAdjust="spacing" textLength="137" x="626.5" y="432.7464">+resetImage(): void</text><text fill="#000000" font-family="sans-serif" font-size="14" lengthAdjust="spacing" textLength="244" x="626.5" y="449.0432">+addKeyListener(KeyAdapter): void</text><text fill="#000000" font-family="sans-serif" font-size="14" lengthAdjust="spacing" textLength="107" x="626.5" y="465.3401">+repaint(): void</text><text fill="#000000" font-family="sans-serif" font-size="14" lengthAdjust="spacing" text-decoration="underline" textLength="210" x="626.5" y="481.637">+getInstance() : ShapeDisplay</text><text fill="#000000" font-family="sans-serif" font-size="14" lengthAdjust="spacing" textLength="114" x="626.5" y="497.9339">+getWidth() : int</text><text fill="#000000" font-family="sans-serif" font-size="14" lengthAdjust="spacing" textLength="120" x="626.5" y="514.2307">+getHeight() : int</text><text fill="#000000" font-family="sans-serif" font-size="14" lengthAdjust="spacing" textLength="166" x="626.5" y="530.5276">+setTitle(String) : String</text><text fill="#000000" font-family="sans-serif" font-size="14" lengthAdjust="spacing" textLength="200" x="626.5" y="546.8245">+getGraphics() : Graphics2D</text><text fill="#000000" font-family="sans-serif" font-size="14" lengthAdjust="spacing" textLength="214" x="626.5" y="563.1214">+setMinimumSize(int, int): void</text></g><!--class ShapeFactory--><g id="elem_ShapeFactory"><rect codeLine="128" fill="#F1F1F1" height="88.8594" id="ShapeFactory" rx="2.5" ry="2.5" style="stroke:#181818;stroke-width:0.5;" width="279" x="1719" y="68.06"/><ellipse cx="1807.25" cy="88.1928" fill="#B4A7E5" rx="11" ry="11" style="stroke:#181818;stroke-width:1.0;"/><path d="M1803.1719,83.9584 L1803.1719,81.8022 L1810.5625,81.8022 L1810.5625,83.9584 L1808.0938,83.9584 L1808.0938,92.0366 L1810.5625,92.0366 L1810.5625,94.1928 L1803.1719,94.1928 L1803.1719,92.0366 L1805.6406,92.0366 L1805.6406,83.9584 L1803.1719,83.9584 Z " fill="#000000"/><text fill="#000000" font-family="sans-serif" font-size="12" font-style="italic" lengthAdjust="spacing" textLength="70" x="1839.75" y="84.1987">&#171;interface&#187;</text><text fill="#000000" font-family="sans-serif" font-size="14" font-style="italic" lengthAdjust="spacing" textLength="94" x="1827.75" y="100.0239">ShapeFactory</text><line style="stroke:#181818;stroke-width:0.5;" x1="1720" x2="1997" y1="108.3256" y2="108.3256"/><line style="stroke:#181818;stroke-width:0.5;" x1="1720" x2="1997" y1="116.3256" y2="116.3256"/><text fill="#000000" font-family="sans-serif" font-size="14" lengthAdjust="spacing" textLength="256" x="1725" y="133.3207">+createCircle(Point, int): Bounceable</text><text fill="#000000" font-family="sans-serif" font-size="14" lengthAdjust="spacing" textLength="267" x="1725" y="149.6176">+createSquare(Point, int): Bounceable</text></g><!--class Square--><g id="elem_Square"><rect codeLine="132" fill="#F1F1F1" height="129.4844" id="Square" rx="2.5" ry="2.5" style="stroke:#181818;stroke-width:0.5;" width="163" x="513" y="630.43"/><ellipse cx="565.75" cy="646.43" fill="#A9DCDF" rx="11" ry="11" style="stroke:#181818;stroke-width:1.0;"/><path d="M565.8594,641.7738 L564.7031,646.8519 L567.0313,646.8519 L565.8594,641.7738 Z M564.375,639.5394 L567.3594,639.5394 L570.7188,651.93 L568.2656,651.93 L567.5,648.8675 L564.2188,648.8675 L563.4688,651.93 L561.0313,651.93 L564.375,639.5394 Z " fill="#000000"/><text fill="#000000" font-family="sans-serif" font-size="14" font-style="italic" lengthAdjust="spacing" textLength="49" x="586.25" y="651.2767">Square</text><line style="stroke:#181818;stroke-width:0.5;" x1="514" x2="675" y1="662.43" y2="662.43"/><text fill="#000000" font-family="sans-serif" font-size="14" lengthAdjust="spacing" textLength="64" x="519" y="679.4251">-side : int</text><line style="stroke:#181818;stroke-width:0.5;" x1="514" x2="675" y1="686.7269" y2="686.7269"/><text fill="#000000" font-family="sans-serif" font-size="14" lengthAdjust="spacing" textLength="136" x="519" y="703.722">+Square(Point, int):</text><text fill="#000000" font-family="sans-serif" font-size="14" lengthAdjust="spacing" textLength="145" x="519" y="720.0189">+getWidth() : double</text><text fill="#000000" font-family="sans-serif" font-size="14" lengthAdjust="spacing" textLength="146" x="519" y="736.3157">+getShape() : Shape</text><text fill="#000000" font-family="sans-serif" font-size="14" lengthAdjust="spacing" textLength="151" x="519" y="752.6126">+getHeight() : double</text></g><!--reverse link Circle to BorderCircle--><g id="link_Circle_BorderCircle"><path codeLine="140" d="M256.14,695.8 C216.36,695.8 195.5,695.8 195.5,695.8 C195.5,695.8 195.5,768.79 195.5,819.83 " fill="none" id="Circle-backto-BorderCircle" style="stroke:#181818;stroke-width:1.0;"/><polygon fill="none" points="274.14,695.8,256.14,689.8,256.14,701.8,274.14,695.8" style="stroke:#181818;stroke-width:1.0;"/></g><!--reverse link Renderer to BorderRenderer--><g id="link_Renderer_BorderRenderer"><path codeLine="141" d="M1137.5,167.16 C1137.5,218.74 1137.5,295.52 1137.5,359.2 " fill="none" id="Renderer-backto-BorderRenderer" style="stroke:#181818;stroke-width:1.0;stroke-dasharray:7.0,7.0;"/><polygon fill="none" points="1137.5,149.16,1131.5,167.16,1143.5,167.16,1137.5,149.16" style="stroke:#181818;stroke-width:1.0;"/></g><!--reverse link ShapeFactory to BorderShapeFactory--><g id="link_ShapeFactory_BorderShapeFactory"><path codeLine="142" d="M1780,175.15 C1780,228.01 1780,298.47 1780,358.99 " fill="none" id="ShapeFactory-backto-BorderShapeFactory" style="stroke:#181818;stroke-width:1.0;stroke-dasharray:7.0,7.0;"/><polygon fill="none" points="1780,157.15,1774,175.15,1786,175.15,1780,157.15" style="stroke:#181818;stroke-width:1.0;"/></g><!--reverse link Square to BorderSquare--><g id="link_Square_BorderSquare"><path codeLine="143" d="M594.5,778.15 C594.5,797.82 594.5,801.09 594.5,819.52 " fill="none" id="Square-backto-BorderSquare" style="stroke:#181818;stroke-width:1.0;"/><polygon fill="none" points="594.5,760.15,588.5,778.15,600.5,778.15,594.5,760.15" style="stroke:#181818;stroke-width:1.0;"/></g><!--reverse link Bounceable to BounceableObject--><g id="link_Bounceable_BounceableObject"><path codeLine="144" d="M350.41,424.8 C361.78,424.8 355.6,424.8 367.37,424.8 " fill="none" id="Bounceable-backto-BounceableObject" style="stroke:#181818;stroke-width:1.0;stroke-dasharray:7.0,7.0;"/><polygon fill="none" points="332.41,424.8,350.41,430.8,350.41,418.8,332.41,424.8" style="stroke:#181818;stroke-width:1.0;"/></g><!--link Bouncers to Bounceable--><g id="link_Bouncers_Bounceable"><path codeLine="145" d="M278.5,218.45 C278.5,260.64 278.5,302.27 278.5,341.07 " fill="none" id="Bouncers-to-Bounceable" style="stroke:#181818;stroke-width:1.0;"/><polygon fill="#181818" points="278.5,347.07,282.5,338.07,278.5,342.07,274.5,338.07,278.5,347.07" style="stroke:#181818;stroke-width:1.0;"/><text fill="#000000" font-family="sans-serif" font-size="13" lengthAdjust="spacing" textLength="68" x="209.5" y="278.8269">- bouncers</text><text fill="#000000" font-family="sans-serif" font-size="13" lengthAdjust="spacing" textLength="8" x="264.6547" y="238.1448">1</text><text fill="#000000" font-family="sans-serif" font-size="13" lengthAdjust="spacing" textLength="7" x="273.8352" y="336.0766">*</text></g><!--link Bouncers to ShapeDisplay--><g id="link_Bouncers_ShapeDisplay"><path codeLine="146" d="M498.48,199.8 C565.31,199.8 631.5,199.8 631.5,199.8 C631.5,199.8 631.5,229.08 631.5,271.65 " fill="none" id="Bouncers-to-ShapeDisplay" style="stroke:#181818;stroke-width:1.0;"/><polygon fill="#181818" points="631.5,277.65,635.5,268.65,631.5,272.65,627.5,268.65,631.5,277.65" style="stroke:#181818;stroke-width:1.0;"/><text fill="#000000" font-family="sans-serif" font-size="13" lengthAdjust="spacing" textLength="53" x="549.92" y="195.8669">- display</text><text fill="#000000" font-family="sans-serif" font-size="13" lengthAdjust="spacing" textLength="8" x="506.1898" y="201.2354">1</text><text fill="#000000" font-family="sans-serif" font-size="13" lengthAdjust="spacing" textLength="8" x="617.2609" y="266.7773">1</text></g><!--reverse link BounceableObject to Circle--><g id="link_BounceableObject_Circle"><path codeLine="147" d="M405,572.52 C405,598.83 405,607.39 405,630.24 " fill="none" id="BounceableObject-backto-Circle" style="stroke:#181818;stroke-width:1.0;"/><polygon fill="none" points="405,554.52,399,572.52,411,572.52,405,554.52" style="stroke:#181818;stroke-width:1.0;"/></g><!--reverse link Circle to FilledCircle--><g id="link_Circle_FilledCircle"><path codeLine="148" d="M358.5,778.15 C358.5,797.82 358.5,801.09 358.5,819.52 " fill="none" id="Circle-backto-FilledCircle" style="stroke:#181818;stroke-width:1.0;"/><polygon fill="none" points="358.5,760.15,352.5,778.15,364.5,778.15,358.5,760.15" style="stroke:#181818;stroke-width:1.0;"/></g><!--reverse link Renderer to FilledRenderer--><g id="link_Renderer_FilledRenderer"><path codeLine="149" d="M1300,167.16 C1300,220.99 1300,303.88 1300,367.36 " fill="none" id="Renderer-backto-FilledRenderer" style="stroke:#181818;stroke-width:1.0;stroke-dasharray:7.0,7.0;"/><polygon fill="none" points="1300,149.16,1294,167.16,1306,167.16,1300,149.16" style="stroke:#181818;stroke-width:1.0;"/></g><!--reverse link ShapeFactory to FilledShapeFactory--><g id="link_ShapeFactory_FilledShapeFactory"><path codeLine="150" d="M1937,175.15 C1937,228.01 1937,298.47 1937,358.99 " fill="none" id="ShapeFactory-backto-FilledShapeFactory" style="stroke:#181818;stroke-width:1.0;stroke-dasharray:7.0,7.0;"/><polygon fill="none" points="1937,157.15,1931,175.15,1943,175.15,1937,157.15" style="stroke:#181818;stroke-width:1.0;"/></g><!--reverse link Square to FilledSquare--><g id="link_Square_FilledSquare"><path codeLine="151" d="M694.31,695.8 C752.72,695.8 803,695.8 803,695.8 C803,695.8 803,768.79 803,819.83 " fill="none" id="Square-backto-FilledSquare" style="stroke:#181818;stroke-width:1.0;"/><polygon fill="none" points="676.31,695.8,694.31,701.8,694.31,689.8,676.31,695.8" style="stroke:#181818;stroke-width:1.0;"/></g><!--reverse link BounceableObject to Square--><g id="link_BounceableObject_Square"><path codeLine="152" d="M549.25,572.52 C549.25,598.83 549.25,607.39 549.25,630.24 " fill="none" id="BounceableObject-backto-Square" style="stroke:#181818;stroke-width:1.0;"/><polygon fill="none" points="549.25,554.52,543.25,572.52,555.25,572.52,549.25,554.52" style="stroke:#181818;stroke-width:1.0;"/></g><!--reverse link Displayer to ShapeDisplay--><g id="link_Displayer_ShapeDisplay"><path codeLine="153" d="M748.5,199.67 C748.5,228.09 748.5,244.16 748.5,277.66 " fill="none" id="Displayer-backto-ShapeDisplay" style="stroke:#181818;stroke-width:1.0;stroke-dasharray:7.0,7.0;"/><polygon fill="none" points="748.5,181.67,742.5,199.67,754.5,199.67,748.5,181.67" style="stroke:#181818;stroke-width:1.0;"/></g><!--SRC=[jLTRRzCm57xFhx2sbuokqq1Y3zMOLDQC1jgjQegu2IetyLf3anJR7Oof_vqJ9sxinEa6Z3oipl5tSkwNyMyqMM66OtI-n9ntXM1qjXR43zCaeBy8EdRu5ZAW2H6tAu9I9XQfuuGP2tgPieYmSyh29K5t3a8jW-IEKfg8GnIbwzcI77G0i8_cH8n90XZ2t0FKGUf5SiFbURfCynjvSZQ6B8MMqjheZWiiQBX1D85J4f9E1MUYWiduweqtVUVt9dtq0Zq38Q2Wn9XihbIsLNA2OduXGkfMaz924UMh9RvrNp6yMj2GF-iT0cmD75XQZsvI6bNC2HPuHIvmA59sMvXKlm1bq6vhTVH3zAxXGqQm86RKuCz1HxD00mRVrvWr0oisIh2H7ZR-lqmEO2Ri6eT4Km2TdgAIVdPMo8uO_k6gE6I4EBqX1i4YeI1BZqcoF2doEng9XIJdEQxeVKBd2w5VR1myuuA1pv5oZbBtQlQL0FbEUg1ApfrKou1Wv7czwV3jOEAF1hutXcn-UhnDvtsqIZcyILx965467wDfOb1Z_5DQeDK1a7BbDTfCwZGc7Bg2vYzrCQ0n5TnmvFsklbFksEmEkecpHST4L0DLvcAcAkFRFCnVwxLr-NOu3VhTaHTCpyTUT-BrJDzgq67t_JJmFte0U6u7-9SAOF_2n1zwusdF6tG_P9WJ3SDm4gLnvWvvaBGvIGZBwYypZRjw6Uk-PUl42DC2lh0aRyZjY17EtJoVoaWePM9C4pU0AP3CFtqk-rKrSOrstzZeivJ3CO4YtDO0-lEgQQW-KAgixrxUTq6GlUmPMO5XebhefHAvnrk84p6X0gp9VI35oPDYKPrTSfLjtg9-zicDcf8NTBaaaU4sdLHrtjzsGaDQPKwQn5q3nKJ-mM3RENOgNwqeQvc2zOlxbVxFK-q11XeQR4mRzIceanvb2chbi8rymn1yu9PIA2yjAYgi28rEgWUbx_cl-XDePYV7rewdTg-6wpAckXY9kOOzb03Fwuli84aqnlECv6U_HR535SjNezvn547x6r0kiWxgmhaRuHKunsYRbaRH6F2AUWqjfTuL_hdH0FEG9ZHUnzcIxcgveo9NHjqeB7i-FFRcLnaMHjet97mRSHeHqsjD8w9X3xFjMqxHSOldIxkDp7zOrEDiIoO77XsXwdvlE59761LV65iNc5yuseOgvQ3QjkTirvJosNkwXzhjCxJtP4_VSJlR_OlndMpmQrHnHyxcF75hIsYcTE4Uc__qkMLpMwNFMzncQPGMj-aDqgvaSLSEV_bvtT3V]--></g></svg>