<?xml version="1.0" encoding="us-ascii" standalone="no"?><svg xmlns="http://www.w3.org/2000/svg" xmlns:xlink="http://www.w3.org/1999/xlink" contentStyleType="text/css" height="1372px" preserveAspectRatio="none" style="width:1092px;height:1372px;background:#FFFFFF;" version="1.1" viewBox="0 0 1092 1372" width="1092px" zoomAndPan="magnify"><defs/><g><!--class Arabic--><g id="elem_Arabic"><rect codeLine="4" fill="#F1F1F1" height="113.1875" id="Arabic" rx="2.5" ry="2.5" style="stroke:#181818;stroke-width:0.5;" width="167" x="371" y="1252.47"/><ellipse cx="429.25" cy="1268.47" fill="#ADD1B2" rx="11" ry="11" style="stroke:#181818;stroke-width:1.0;"/><path d="M432.2188,1274.1106 Q431.6406,1274.4075 431,1274.5481 Q430.3594,1274.7044 429.6563,1274.7044 Q427.1563,1274.7044 425.8281,1273.0638 Q424.5156,1271.4075 424.5156,1268.2825 Q424.5156,1265.1575 425.8281,1263.5013 Q427.1563,1261.845 429.6563,1261.845 Q430.3594,1261.845 431,1262.0013 Q431.6563,1262.1575 432.2188,1262.4544 L432.2188,1265.1731 Q431.5938,1264.595 431,1264.3294 Q430.4063,1264.0481 429.7813,1264.0481 Q428.4375,1264.0481 427.75,1265.1263 Q427.0625,1266.1888 427.0625,1268.2825 Q427.0625,1270.3763 427.75,1271.4544 Q428.4375,1272.5169 429.7813,1272.5169 Q430.4063,1272.5169 431,1272.2513 Q431.5938,1271.97 432.2188,1271.3919 L432.2188,1274.1106 Z " fill="#000000"/><text fill="#000000" font-family="sans-serif" font-size="14" lengthAdjust="spacing" textLength="42" x="449.75" y="1273.3167">Arabic</text><line style="stroke:#181818;stroke-width:0.5;" x1="372" x2="537" y1="1284.47" y2="1284.47"/><line style="stroke:#181818;stroke-width:0.5;" x1="372" x2="537" y1="1292.47" y2="1292.47"/><text fill="#000000" font-family="sans-serif" font-size="14" lengthAdjust="spacing" textLength="115" x="377" y="1309.4651">+Arabic(Chrono)</text><text fill="#000000" font-family="sans-serif" font-size="14" lengthAdjust="spacing" textLength="102" x="377" y="1325.762">#path(): String</text><text fill="#000000" font-family="sans-serif" font-size="14" lengthAdjust="spacing" textLength="155" x="377" y="1342.0589">#secondColor(): Color</text><text fill="#000000" font-family="sans-serif" font-size="14" lengthAdjust="spacing" textLength="151" x="377" y="1358.3557">#minuteColor(): Color</text></g><!--class Chrono--><g id="elem_Chrono"><rect codeLine="11" fill="#F1F1F1" height="243.5625" id="Chrono" rx="2.5" ry="2.5" style="stroke:#181818;stroke-width:0.5;" width="168" x="499.5" y="594.46"/><ellipse cx="553.75" cy="610.46" fill="#ADD1B2" rx="11" ry="11" style="stroke:#181818;stroke-width:1.0;"/><path d="M556.7188,616.1006 Q556.1406,616.3975 555.5,616.5381 Q554.8594,616.6944 554.1563,616.6944 Q551.6563,616.6944 550.3281,615.0538 Q549.0156,613.3975 549.0156,610.2725 Q549.0156,607.1475 550.3281,605.4913 Q551.6563,603.835 554.1563,603.835 Q554.8594,603.835 555.5,603.9913 Q556.1563,604.1475 556.7188,604.4444 L556.7188,607.1631 Q556.0938,606.585 555.5,606.3194 Q554.9063,606.0381 554.2813,606.0381 Q552.9375,606.0381 552.25,607.1163 Q551.5625,608.1788 551.5625,610.2725 Q551.5625,612.3663 552.25,613.4444 Q552.9375,614.5069 554.2813,614.5069 Q554.9063,614.5069 555.5,614.2413 Q556.0938,613.96 556.7188,613.3819 L556.7188,616.1006 Z " fill="#000000"/><text fill="#000000" font-family="sans-serif" font-size="14" lengthAdjust="spacing" textLength="51" x="574.25" y="615.3067">Chrono</text><line style="stroke:#181818;stroke-width:0.5;" x1="500.5" x2="666.5" y1="626.46" y2="626.46"/><text fill="#000000" font-family="sans-serif" font-size="14" lengthAdjust="spacing" textLength="88" x="505.5" y="643.4551">-timer: Timer</text><text fill="#000000" font-family="sans-serif" font-size="14" lengthAdjust="spacing" textLength="139" x="505.5" y="659.752">-isRunning: boolean</text><text fill="#000000" font-family="sans-serif" font-size="14" lengthAdjust="spacing" textLength="43" x="505.5" y="676.0489">-id: int</text><text fill="#000000" font-family="sans-serif" font-size="14" lengthAdjust="spacing" textLength="104" x="505.5" y="692.3457">-seconds: long</text><text fill="#000000" font-family="sans-serif" font-size="14" lengthAdjust="spacing" text-decoration="underline" textLength="62" x="505.5" y="708.6426">-totId: int</text><line style="stroke:#181818;stroke-width:0.5;" x1="500.5" x2="666.5" y1="715.9444" y2="715.9444"/><text fill="#000000" font-family="sans-serif" font-size="14" lengthAdjust="spacing" textLength="73" x="505.5" y="732.9395">+Chrono()</text><text fill="#000000" font-family="sans-serif" font-size="14" lengthAdjust="spacing" textLength="145" x="505.5" y="749.2364">+getSeconds(): long</text><text fill="#000000" font-family="sans-serif" font-size="14" lengthAdjust="spacing" textLength="90" x="505.5" y="765.5332">+start(): void</text><text fill="#000000" font-family="sans-serif" font-size="14" lengthAdjust="spacing" textLength="102" x="505.5" y="781.8301">+pause(): void</text><text fill="#000000" font-family="sans-serif" font-size="14" lengthAdjust="spacing" textLength="156" x="505.5" y="798.127">+isRunning(): boolean</text><text fill="#000000" font-family="sans-serif" font-size="14" lengthAdjust="spacing" textLength="125" x="505.5" y="814.4239">+toString(): String</text><text fill="#000000" font-family="sans-serif" font-size="14" lengthAdjust="spacing" textLength="95" x="505.5" y="830.7207">+reset(): void</text></g><!--class ChronoFrame--><g id="elem_ChronoFrame"><rect codeLine="26" fill="#F1F1F1" height="64.2969" id="ChronoFrame" rx="2.5" ry="2.5" style="stroke:#181818;stroke-width:0.5;" width="298" x="548.5" y="31.45"/><ellipse cx="646.25" cy="47.45" fill="#ADD1B2" rx="11" ry="11" style="stroke:#181818;stroke-width:1.0;"/><path d="M649.2188,53.0906 Q648.6406,53.3875 648,53.5281 Q647.3594,53.6844 646.6563,53.6844 Q644.1563,53.6844 642.8281,52.0438 Q641.5156,50.3875 641.5156,47.2625 Q641.5156,44.1375 642.8281,42.4813 Q644.1563,40.825 646.6563,40.825 Q647.3594,40.825 648,40.9813 Q648.6563,41.1375 649.2188,41.4344 L649.2188,44.1531 Q648.5938,43.575 648,43.3094 Q647.4063,43.0281 646.7813,43.0281 Q645.4375,43.0281 644.75,44.1063 Q644.0625,45.1688 644.0625,47.2625 Q644.0625,49.3563 644.75,50.4344 Q645.4375,51.4969 646.7813,51.4969 Q647.4063,51.4969 648,51.2313 Q648.5938,50.95 649.2188,50.3719 L649.2188,53.0906 Z " fill="#000000"/><text fill="#000000" font-family="sans-serif" font-size="14" lengthAdjust="spacing" textLength="94" x="666.75" y="52.2967">ChronoFrame</text><line style="stroke:#181818;stroke-width:0.5;" x1="549.5" x2="845.5" y1="63.45" y2="63.45"/><line style="stroke:#181818;stroke-width:0.5;" x1="549.5" x2="845.5" y1="71.45" y2="71.45"/><text fill="#000000" font-family="sans-serif" font-size="14" lengthAdjust="spacing" textLength="286" x="554.5" y="88.4451">#ChronoFrame(ArrayList&lt;ChronoPanel&gt;)</text></g><!--class ChronoPanel--><g id="elem_ChronoPanel"><rect codeLine="30" fill="#F1F1F1" height="162.0781" id="ChronoPanel" rx="2.5" ry="2.5" style="stroke:#181818;stroke-width:0.5;" width="262" x="823.5" y="635.2"/><ellipse cx="905.75" cy="651.2" fill="#A9DCDF" rx="11" ry="11" style="stroke:#181818;stroke-width:1.0;"/><path d="M905.8594,646.5438 L904.7031,651.6219 L907.0313,651.6219 L905.8594,646.5438 Z M904.375,644.3094 L907.3594,644.3094 L910.7188,656.7 L908.2656,656.7 L907.5,653.6375 L904.2188,653.6375 L903.4688,656.7 L901.0313,656.7 L904.375,644.3094 Z " fill="#000000"/><text fill="#000000" font-family="sans-serif" font-size="14" font-style="italic" lengthAdjust="spacing" textLength="89" x="926.25" y="656.0467">ChronoPanel</text><line style="stroke:#181818;stroke-width:0.5;" x1="824.5" x2="1084.5" y1="667.2" y2="667.2"/><line style="stroke:#181818;stroke-width:0.5;" x1="824.5" x2="1084.5" y1="675.2" y2="675.2"/><text fill="#000000" font-family="sans-serif" font-size="14" lengthAdjust="spacing" textLength="162" x="829.5" y="692.1951">#ChronoPanel(Chrono)</text><text fill="#000000" font-family="sans-serif" font-size="14" lengthAdjust="spacing" textLength="108" x="829.5" y="708.492">+update(): void</text><text fill="#000000" font-family="sans-serif" font-size="14" lengthAdjust="spacing" textLength="151" x="829.5" y="724.7889">+graphString(): String</text><text fill="#000000" font-family="sans-serif" font-size="14" lengthAdjust="spacing" textLength="112" x="829.5" y="741.0857">+detatch(): void</text><text fill="#000000" font-family="sans-serif" font-size="14" lengthAdjust="spacing" textLength="183" x="829.5" y="757.3826">#drawText(Graphics): void</text><text fill="#000000" font-family="sans-serif" font-size="14" lengthAdjust="spacing" textLength="250" x="829.5" y="773.6795">#verticalPlacement(FontMetrics): int</text><text fill="#000000" font-family="sans-serif" font-size="14" lengthAdjust="spacing" textLength="236" x="829.5" y="789.9764">#paintComponent(Graphics): void</text></g><!--class ControlFrame--><g id="elem_ControlFrame"><rect codeLine="40" fill="#F1F1F1" height="64.2969" id="ControlFrame" rx="2.5" ry="2.5" style="stroke:#181818;stroke-width:0.5;" width="144" x="369.5" y="31.45"/><ellipse cx="393.05" cy="47.45" fill="#ADD1B2" rx="11" ry="11" style="stroke:#181818;stroke-width:1.0;"/><path d="M396.0188,53.0906 Q395.4406,53.3875 394.8,53.5281 Q394.1594,53.6844 393.4563,53.6844 Q390.9563,53.6844 389.6281,52.0438 Q388.3156,50.3875 388.3156,47.2625 Q388.3156,44.1375 389.6281,42.4813 Q390.9563,40.825 393.4563,40.825 Q394.1594,40.825 394.8,40.9813 Q395.4563,41.1375 396.0188,41.4344 L396.0188,44.1531 Q395.3938,43.575 394.8,43.3094 Q394.2063,43.0281 393.5813,43.0281 Q392.2375,43.0281 391.55,44.1063 Q390.8625,45.1688 390.8625,47.2625 Q390.8625,49.3563 391.55,50.4344 Q392.2375,51.4969 393.5813,51.4969 Q394.2063,51.4969 394.8,51.2313 Q395.3938,50.95 396.0188,50.3719 L396.0188,53.0906 Z " fill="#000000"/><text fill="#000000" font-family="sans-serif" font-size="14" lengthAdjust="spacing" textLength="93" x="408.95" y="52.2967">ControlFrame</text><line style="stroke:#181818;stroke-width:0.5;" x1="370.5" x2="512.5" y1="63.45" y2="63.45"/><line style="stroke:#181818;stroke-width:0.5;" x1="370.5" x2="512.5" y1="71.45" y2="71.45"/><text fill="#000000" font-family="sans-serif" font-size="14" lengthAdjust="spacing" textLength="132" x="375.5" y="88.4451">+ControlFrame(int)</text></g><!--class ControlPanel--><g id="elem_ControlPanel"><rect codeLine="44" fill="#F1F1F1" height="178.375" id="ControlPanel" rx="2.5" ry="2.5" style="stroke:#181818;stroke-width:0.5;" width="194" x="486.5" y="181.19"/><ellipse cx="535.25" cy="197.19" fill="#ADD1B2" rx="11" ry="11" style="stroke:#181818;stroke-width:1.0;"/><path d="M538.2188,202.8306 Q537.6406,203.1275 537,203.2681 Q536.3594,203.4244 535.6563,203.4244 Q533.1563,203.4244 531.8281,201.7838 Q530.5156,200.1275 530.5156,197.0025 Q530.5156,193.8775 531.8281,192.2213 Q533.1563,190.565 535.6563,190.565 Q536.3594,190.565 537,190.7213 Q537.6563,190.8775 538.2188,191.1744 L538.2188,193.8931 Q537.5938,193.315 537,193.0494 Q536.4063,192.7681 535.7813,192.7681 Q534.4375,192.7681 533.75,193.8463 Q533.0625,194.9088 533.0625,197.0025 Q533.0625,199.0963 533.75,200.1744 Q534.4375,201.2369 535.7813,201.2369 Q536.4063,201.2369 537,200.9713 Q537.5938,200.69 538.2188,200.1119 L538.2188,202.8306 Z " fill="#000000"/><text fill="#000000" font-family="sans-serif" font-size="14" lengthAdjust="spacing" textLength="88" x="555.75" y="202.0367">ControlPanel</text><line style="stroke:#181818;stroke-width:0.5;" x1="487.5" x2="679.5" y1="213.19" y2="213.19"/><text fill="#000000" font-family="sans-serif" font-size="14" lengthAdjust="spacing" textLength="95" x="492.5" y="230.1851">-start: JButton</text><text fill="#000000" font-family="sans-serif" font-size="14" lengthAdjust="spacing" textLength="101" x="492.5" y="246.482">#arab: JButton</text><text fill="#000000" font-family="sans-serif" font-size="14" lengthAdjust="spacing" textLength="115" x="492.5" y="262.7789">#roman: JButton</text><text fill="#000000" font-family="sans-serif" font-size="14" lengthAdjust="spacing" textLength="95" x="492.5" y="279.0757">-stop: JButton</text><text fill="#000000" font-family="sans-serif" font-size="14" lengthAdjust="spacing" textLength="100" x="492.5" y="295.3726">-reset: JButton</text><text fill="#000000" font-family="sans-serif" font-size="14" lengthAdjust="spacing" textLength="102" x="492.5" y="311.6695">#num: JButton</text><line style="stroke:#181818;stroke-width:0.5;" x1="487.5" x2="679.5" y1="318.9713" y2="318.9713"/><text fill="#000000" font-family="sans-serif" font-size="14" lengthAdjust="spacing" textLength="161" x="492.5" y="335.9664">+ControlPanel(Chrono)</text><text fill="#000000" font-family="sans-serif" font-size="14" lengthAdjust="spacing" textLength="182" x="492.5" y="352.2632">#drawComponents(): void</text></g><!--class ControlPanelEnd--><g id="elem_ControlPanelEnd"><rect codeLine="55" fill="#F1F1F1" height="96.8906" id="ControlPanelEnd" rx="2.5" ry="2.5" style="stroke:#181818;stroke-width:0.5;" width="499" x="14" y="420.57"/><ellipse cx="201.75" cy="436.57" fill="#ADD1B2" rx="11" ry="11" style="stroke:#181818;stroke-width:1.0;"/><path d="M204.7188,442.2106 Q204.1406,442.5075 203.5,442.6481 Q202.8594,442.8044 202.1563,442.8044 Q199.6563,442.8044 198.3281,441.1638 Q197.0156,439.5075 197.0156,436.3825 Q197.0156,433.2575 198.3281,431.6013 Q199.6563,429.945 202.1563,429.945 Q202.8594,429.945 203.5,430.1013 Q204.1563,430.2575 204.7188,430.5544 L204.7188,433.2731 Q204.0938,432.695 203.5,432.4294 Q202.9063,432.1481 202.2813,432.1481 Q200.9375,432.1481 200.25,433.2263 Q199.5625,434.2888 199.5625,436.3825 Q199.5625,438.4763 200.25,439.5544 Q200.9375,440.6169 202.2813,440.6169 Q202.9063,440.6169 203.5,440.3513 Q204.0938,440.07 204.7188,439.4919 L204.7188,442.2106 Z " fill="#000000"/><text fill="#000000" font-family="sans-serif" font-size="14" lengthAdjust="spacing" textLength="115" x="222.25" y="441.4167">ControlPanelEnd</text><line style="stroke:#181818;stroke-width:0.5;" x1="15" x2="512" y1="452.57" y2="452.57"/><line style="stroke:#181818;stroke-width:0.5;" x1="15" x2="512" y1="460.57" y2="460.57"/><text fill="#000000" font-family="sans-serif" font-size="14" lengthAdjust="spacing" textLength="269" x="20" y="477.5651">+ControlPanelEnd(ArrayList&lt;Chrono&gt;)</text><text fill="#000000" font-family="sans-serif" font-size="14" lengthAdjust="spacing" textLength="182" x="20" y="493.862">#drawComponents(): void</text><text fill="#000000" font-family="sans-serif" font-size="14" lengthAdjust="spacing" textLength="487" x="20" y="510.1589">-createAndShowChronoFrame(Function&lt;Chrono, ChronoPanel&gt;): void</text></g><!--class Dial--><g id="elem_Dial"><rect codeLine="61" fill="#F1F1F1" height="292.4531" id="Dial" rx="2.5" ry="2.5" style="stroke:#181818;stroke-width:0.5;" width="262" x="424.5" y="899.02"/><ellipse cx="538.75" cy="915.02" fill="#A9DCDF" rx="11" ry="11" style="stroke:#181818;stroke-width:1.0;"/><path d="M538.8594,910.3638 L537.7031,915.4419 L540.0313,915.4419 L538.8594,910.3638 Z M537.375,908.1294 L540.3594,908.1294 L543.7188,920.52 L541.2656,920.52 L540.5,917.4575 L537.2188,917.4575 L536.4688,920.52 L534.0313,920.52 L537.375,908.1294 Z " fill="#000000"/><text fill="#000000" font-family="sans-serif" font-size="14" font-style="italic" lengthAdjust="spacing" textLength="25" x="559.25" y="919.8667">Dial</text><line style="stroke:#181818;stroke-width:0.5;" x1="425.5" x2="685.5" y1="931.02" y2="931.02"/><text fill="#000000" font-family="sans-serif" font-size="14" lengthAdjust="spacing" text-decoration="underline" textLength="135" x="430.5" y="948.0151">-LENGTH_HOUR: int</text><text fill="#000000" font-family="sans-serif" font-size="14" lengthAdjust="spacing" text-decoration="underline" textLength="142" x="430.5" y="964.312">-IMG_DIMENSION: int</text><text fill="#000000" font-family="sans-serif" font-size="14" lengthAdjust="spacing" text-decoration="underline" textLength="147" x="430.5" y="980.6089">-LENGTH_MINUTE: int</text><text fill="#000000" font-family="sans-serif" font-size="14" lengthAdjust="spacing" text-decoration="underline" textLength="154" x="430.5" y="996.9057">-LENGTH_SECOND: int</text><line style="stroke:#181818;stroke-width:0.5;" x1="425.5" x2="685.5" y1="1004.2075" y2="1004.2075"/><text fill="#000000" font-family="sans-serif" font-size="14" lengthAdjust="spacing" textLength="98" x="430.5" y="1021.2026">+Dial(Chrono)</text><text fill="#000000" font-family="sans-serif" font-size="14" lengthAdjust="spacing" textLength="236" x="430.5" y="1037.4995">#paintComponent(Graphics): void</text><text fill="#000000" font-family="sans-serif" font-size="14" lengthAdjust="spacing" textLength="155" x="430.5" y="1053.7964">+graphImage(): Image</text><text fill="#000000" font-family="sans-serif" font-size="14" lengthAdjust="spacing" textLength="250" x="430.5" y="1070.0932">#verticalPlacement(FontMetrics): int</text><text fill="#000000" font-family="sans-serif" font-size="14" lengthAdjust="spacing" textLength="209" x="430.5" y="1086.3901">#drawHands(): BufferedImage</text><text fill="#000000" font-family="sans-serif" font-size="14" lengthAdjust="spacing" textLength="231" x="430.5" y="1102.687">+addImageToCache(Image): void</text><text fill="#000000" font-family="sans-serif" font-size="14" lengthAdjust="spacing" textLength="88" x="430.5" y="1118.9839">-key(): String</text><text fill="#000000" font-family="sans-serif" font-size="14" lengthAdjust="spacing" textLength="188" x="430.5" y="1135.2807">-drawImage(Graphics): void</text><text fill="#000000" font-family="sans-serif" font-size="14" font-style="italic" lengthAdjust="spacing" textLength="155" x="430.5" y="1151.5776">#secondColor(): Color</text><text fill="#000000" font-family="sans-serif" font-size="14" font-style="italic" lengthAdjust="spacing" textLength="151" x="430.5" y="1167.8745">#minuteColor(): Color</text><text fill="#000000" font-family="sans-serif" font-size="14" font-style="italic" lengthAdjust="spacing" textLength="102" x="430.5" y="1184.1714">#path(): String</text></g><!--class ImageCacheManager--><g id="elem_ImageCacheManager"><rect codeLine="79" fill="#F1F1F1" height="113.1875" id="ImageCacheManager" rx="2.5" ry="2.5" style="stroke:#181818;stroke-width:0.5;" width="327" x="7" y="7"/><ellipse cx="93.25" cy="23" fill="#ADD1B2" rx="11" ry="11" style="stroke:#181818;stroke-width:1.0;"/><path d="M96.2188,28.6406 Q95.6406,28.9375 95,29.0781 Q94.3594,29.2344 93.6563,29.2344 Q91.1563,29.2344 89.8281,27.5938 Q88.5156,25.9375 88.5156,22.8125 Q88.5156,19.6875 89.8281,18.0313 Q91.1563,16.375 93.6563,16.375 Q94.3594,16.375 95,16.5313 Q95.6563,16.6875 96.2188,16.9844 L96.2188,19.7031 Q95.5938,19.125 95,18.8594 Q94.4063,18.5781 93.7813,18.5781 Q92.4375,18.5781 91.75,19.6563 Q91.0625,20.7188 91.0625,22.8125 Q91.0625,24.9063 91.75,25.9844 Q92.4375,27.0469 93.7813,27.0469 Q94.4063,27.0469 95,26.7813 Q95.5938,26.5 96.2188,25.9219 L96.2188,28.6406 Z " fill="#000000"/><text fill="#000000" font-family="sans-serif" font-size="14" lengthAdjust="spacing" textLength="146" x="113.75" y="27.8467">ImageCacheManager</text><line style="stroke:#181818;stroke-width:0.5;" x1="8" x2="333" y1="39" y2="39"/><text fill="#000000" font-family="sans-serif" font-size="14" lengthAdjust="spacing" text-decoration="underline" textLength="315" x="13" y="55.9951">-IMAGE_CACHE: Map&lt;String, BufferedImage&gt;</text><line style="stroke:#181818;stroke-width:0.5;" x1="8" x2="333" y1="63.2969" y2="63.2969"/><text fill="#000000" font-family="sans-serif" font-size="14" lengthAdjust="spacing" text-decoration="underline" textLength="276" x="13" y="80.292">+addImage(String, BufferedImage): void</text><text fill="#000000" font-family="sans-serif" font-size="14" lengthAdjust="spacing" text-decoration="underline" textLength="237" x="13" y="96.5889">+getImage(String): BufferedImage</text><text fill="#000000" font-family="sans-serif" font-size="14" lengthAdjust="spacing" text-decoration="underline" textLength="233" x="13" y="112.8857">+isImageCached(String): boolean</text></g><!--class Numeric--><g id="elem_Numeric"><rect codeLine="86" fill="#F1F1F1" height="96.8906" id="Numeric" rx="2.5" ry="2.5" style="stroke:#181818;stroke-width:0.5;" width="248" x="830.5" y="996.8"/><ellipse cx="921.75" cy="1012.8" fill="#ADD1B2" rx="11" ry="11" style="stroke:#181818;stroke-width:1.0;"/><path d="M924.7188,1018.4406 Q924.1406,1018.7375 923.5,1018.8781 Q922.8594,1019.0344 922.1563,1019.0344 Q919.6563,1019.0344 918.3281,1017.3938 Q917.0156,1015.7375 917.0156,1012.6125 Q917.0156,1009.4875 918.3281,1007.8313 Q919.6563,1006.175 922.1563,1006.175 Q922.8594,1006.175 923.5,1006.3313 Q924.1563,1006.4875 924.7188,1006.7844 L924.7188,1009.5031 Q924.0938,1008.925 923.5,1008.6594 Q922.9063,1008.3781 922.2813,1008.3781 Q920.9375,1008.3781 920.25,1009.4563 Q919.5625,1010.5188 919.5625,1012.6125 Q919.5625,1014.7063 920.25,1015.7844 Q920.9375,1016.8469 922.2813,1016.8469 Q922.9063,1016.8469 923.5,1016.5813 Q924.0938,1016.3 924.7188,1015.7219 L924.7188,1018.4406 Z " fill="#000000"/><text fill="#000000" font-family="sans-serif" font-size="14" lengthAdjust="spacing" textLength="57" x="942.25" y="1017.6467">Numeric</text><line style="stroke:#181818;stroke-width:0.5;" x1="831.5" x2="1077.5" y1="1028.8" y2="1028.8"/><line style="stroke:#181818;stroke-width:0.5;" x1="831.5" x2="1077.5" y1="1036.8" y2="1036.8"/><text fill="#000000" font-family="sans-serif" font-size="14" lengthAdjust="spacing" textLength="130" x="836.5" y="1053.7951">+Numeric(Chrono)</text><text fill="#000000" font-family="sans-serif" font-size="14" lengthAdjust="spacing" textLength="236" x="836.5" y="1070.092">#paintComponent(Graphics): void</text><text fill="#000000" font-family="sans-serif" font-size="14" lengthAdjust="spacing" textLength="151" x="836.5" y="1086.3889">+graphString(): String</text></g><!--class Observer--><g id="elem_Observer"><rect codeLine="92" fill="#F1F1F1" height="64.2969" id="Observer" rx="2.5" ry="2.5" style="stroke:#181818;stroke-width:0.5;" width="120" x="918.5" y="436.86"/><ellipse cx="944.75" cy="452.86" fill="#B4A7E5" rx="11" ry="11" style="stroke:#181818;stroke-width:1.0;"/><path d="M940.6719,448.6256 L940.6719,446.4694 L948.0625,446.4694 L948.0625,448.6256 L945.5938,448.6256 L945.5938,456.7038 L948.0625,456.7038 L948.0625,458.86 L940.6719,458.86 L940.6719,456.7038 L943.1406,456.7038 L943.1406,448.6256 L940.6719,448.6256 Z " fill="#000000"/><text fill="#000000" font-family="sans-serif" font-size="14" font-style="italic" lengthAdjust="spacing" textLength="63" x="961.25" y="457.7067">Observer</text><line style="stroke:#181818;stroke-width:0.5;" x1="919.5" x2="1037.5" y1="468.86" y2="468.86"/><line style="stroke:#181818;stroke-width:0.5;" x1="919.5" x2="1037.5" y1="476.86" y2="476.86"/><text fill="#000000" font-family="sans-serif" font-size="14" font-style="italic" lengthAdjust="spacing" textLength="108" x="924.5" y="493.8551">+update(): void</text></g><!--class Roman--><g id="elem_Roman"><rect codeLine="96" fill="#F1F1F1" height="113.1875" id="Roman" rx="2.5" ry="2.5" style="stroke:#181818;stroke-width:0.5;" width="167" x="573" y="1252.47"/><ellipse cx="627.75" cy="1268.47" fill="#ADD1B2" rx="11" ry="11" style="stroke:#181818;stroke-width:1.0;"/><path d="M630.7188,1274.1106 Q630.1406,1274.4075 629.5,1274.5481 Q628.8594,1274.7044 628.1563,1274.7044 Q625.6563,1274.7044 624.3281,1273.0638 Q623.0156,1271.4075 623.0156,1268.2825 Q623.0156,1265.1575 624.3281,1263.5013 Q625.6563,1261.845 628.1563,1261.845 Q628.8594,1261.845 629.5,1262.0013 Q630.1563,1262.1575 630.7188,1262.4544 L630.7188,1265.1731 Q630.0938,1264.595 629.5,1264.3294 Q628.9063,1264.0481 628.2813,1264.0481 Q626.9375,1264.0481 626.25,1265.1263 Q625.5625,1266.1888 625.5625,1268.2825 Q625.5625,1270.3763 626.25,1271.4544 Q626.9375,1272.5169 628.2813,1272.5169 Q628.9063,1272.5169 629.5,1272.2513 Q630.0938,1271.97 630.7188,1271.3919 L630.7188,1274.1106 Z " fill="#000000"/><text fill="#000000" font-family="sans-serif" font-size="14" lengthAdjust="spacing" textLength="49" x="648.25" y="1273.3167">Roman</text><line style="stroke:#181818;stroke-width:0.5;" x1="574" x2="739" y1="1284.47" y2="1284.47"/><line style="stroke:#181818;stroke-width:0.5;" x1="574" x2="739" y1="1292.47" y2="1292.47"/><text fill="#000000" font-family="sans-serif" font-size="14" lengthAdjust="spacing" textLength="122" x="579" y="1309.4651">+Roman(Chrono)</text><text fill="#000000" font-family="sans-serif" font-size="14" lengthAdjust="spacing" textLength="102" x="579" y="1325.762">#path(): String</text><text fill="#000000" font-family="sans-serif" font-size="14" lengthAdjust="spacing" textLength="151" x="579" y="1342.0589">#minuteColor(): Color</text><text fill="#000000" font-family="sans-serif" font-size="14" lengthAdjust="spacing" textLength="155" x="579" y="1358.3557">#secondColor(): Color</text></g><!--class Subject--><g id="elem_Subject"><rect codeLine="103" fill="#F1F1F1" height="96.8906" id="Subject" rx="2.5" ry="2.5" style="stroke:#181818;stroke-width:0.5;" width="182" x="664.5" y="420.57"/><ellipse cx="725.25" cy="436.57" fill="#A9DCDF" rx="11" ry="11" style="stroke:#181818;stroke-width:1.0;"/><path d="M725.3594,431.9138 L724.2031,436.9919 L726.5313,436.9919 L725.3594,431.9138 Z M723.875,429.6794 L726.8594,429.6794 L730.2188,442.07 L727.7656,442.07 L727,439.0075 L723.7188,439.0075 L722.9688,442.07 L720.5313,442.07 L723.875,429.6794 Z " fill="#000000"/><text fill="#000000" font-family="sans-serif" font-size="14" font-style="italic" lengthAdjust="spacing" textLength="52" x="745.75" y="441.4167">Subject</text><line style="stroke:#181818;stroke-width:0.5;" x1="665.5" x2="845.5" y1="452.57" y2="452.57"/><line style="stroke:#181818;stroke-width:0.5;" x1="665.5" x2="845.5" y1="460.57" y2="460.57"/><text fill="#000000" font-family="sans-serif" font-size="14" lengthAdjust="spacing" textLength="165" x="670.5" y="477.5651">+attach(Observer): void</text><text fill="#000000" font-family="sans-serif" font-size="14" lengthAdjust="spacing" textLength="170" x="670.5" y="493.862">+detach(Observer): void</text><text fill="#000000" font-family="sans-serif" font-size="14" lengthAdjust="spacing" textLength="123" x="670.5" y="510.1589">+obsNotify(): void</text></g><!--link Subject to Observer--><g id="link_Subject_Observer"><path codeLine="109" d="M846.85,469.01 C870.9,469.01 890.25,469.01 912.22,469.01 " fill="none" id="Subject-to-Observer" style="stroke:#181818;stroke-width:1.0;"/><polygon fill="#181818" points="918.22,469.01,909.22,465.01,913.22,469.01,909.22,473.01,918.22,469.01" style="stroke:#181818;stroke-width:1.0;"/><text fill="#000000" font-family="sans-serif" font-size="13" lengthAdjust="spacing" textLength="35" x="865" y="462.0769">notify</text><text fill="#000000" font-family="sans-serif" font-size="13" lengthAdjust="spacing" textLength="8" x="854.4482" y="465.4841">1</text><text fill="#000000" font-family="sans-serif" font-size="13" lengthAdjust="spacing" textLength="7" x="903.4468" y="465.1711">*</text></g><!--link Subject to Observer--><!--link ControlPanelEnd to Chrono--><g id="link_ControlPanelEnd_Chrono"><path codeLine="110" d="M339.27,517.93 C353.5,527.44 368.1,537.55 381.5,547.46 C421.26,576.88 459.03,607.6239 494.62,637.7439 " fill="none" id="ControlPanelEnd-to-Chrono" style="stroke:#181818;stroke-width:1.0;"/><polygon fill="#181818" points="499.2,641.62,494.9141,632.7526,495.3834,638.39,489.746,638.8592,499.2,641.62" style="stroke:#181818;stroke-width:1.0;"/><text fill="#000000" font-family="sans-serif" font-size="13" lengthAdjust="spacing" textLength="44" x="400.5" y="560.5269">display</text><text fill="#000000" font-family="sans-serif" font-size="13" lengthAdjust="spacing" textLength="8" x="340.9141" y="537.5865">1</text><text fill="#000000" font-family="sans-serif" font-size="13" lengthAdjust="spacing" textLength="23" x="468.5659" y="632.1481">3..*</text></g><!--link ControlPanel to Chrono--><g id="link_ControlPanel_Chrono"><path codeLine="111" d="M583.5,359.87 C583.5,427.01 583.5,514.08 583.5,588.13 " fill="none" id="ControlPanel-to-Chrono" style="stroke:#181818;stroke-width:1.0;"/><polygon fill="#181818" points="583.5,594.13,587.5,585.13,583.5,589.13,579.5,585.13,583.5,594.13" style="stroke:#181818;stroke-width:1.0;"/><text fill="#000000" font-family="sans-serif" font-size="13" lengthAdjust="spacing" textLength="44" x="584.5" y="473.5769">control</text><text fill="#000000" font-family="sans-serif" font-size="13" lengthAdjust="spacing" textLength="8" x="575.1813" y="379.6713">1</text><text fill="#000000" font-family="sans-serif" font-size="13" lengthAdjust="spacing" textLength="8" x="575.2563" y="583.3028">1</text></g><!--link ChronoPanel to Chrono--><g id="link_ChronoPanel_Chrono"><path codeLine="112" d="M823.34,716.24 C771.59,716.24 719.65,716.24 673.69,716.24 " fill="none" id="ChronoPanel-to-Chrono" style="stroke:#181818;stroke-width:1.0;"/><polygon fill="#181818" points="667.69,716.24,676.69,720.24,672.69,716.24,676.69,712.24,667.69,716.24" style="stroke:#181818;stroke-width:1.0;"/><text fill="#000000" font-family="sans-serif" font-size="13" lengthAdjust="spacing" textLength="120" x="685.5" y="709.3069">display and control</text><text fill="#000000" font-family="sans-serif" font-size="13" lengthAdjust="spacing" textLength="8" x="807.5261" y="712.8772">1</text><text fill="#000000" font-family="sans-serif" font-size="13" lengthAdjust="spacing" textLength="8" x="675.5444" y="712.6447">1</text></g><!--link Chrono to ChronoPanel--><!--reverse link Dial to Arabic--><g id="link_Dial_Arabic"><path codeLine="115" d="M492.9095,1208.4929 C484.6395,1229.9229 483.06,1234.02 476.11,1252.06 " fill="none" id="Dial-backto-Arabic" style="stroke:#181818;stroke-width:1.0;"/><polygon fill="none" points="499.39,1191.7,487.3118,1206.3328,498.5071,1210.6531,499.39,1191.7" style="stroke:#181818;stroke-width:1.0;"/></g><!--reverse link Dial to Roman--><g id="link_Dial_Roman"><path codeLine="116" d="M618.0905,1208.4929 C626.3605,1229.9229 627.94,1234.02 634.89,1252.06 " fill="none" id="Dial-backto-Roman" style="stroke:#181818;stroke-width:1.0;"/><polygon fill="none" points="611.61,1191.7,612.4929,1210.6531,623.6882,1206.3328,611.61,1191.7" style="stroke:#181818;stroke-width:1.0;"/></g><!--reverse link Subject to Chrono--><g id="link_Subject_Chrono"><path codeLine="117" d="M711.5948,532.6171 C696.0048,554.8471 687.02,567.64 667.82,595.02 " fill="none" id="Subject-backto-Chrono" style="stroke:#181818;stroke-width:1.0;"/><polygon fill="none" points="721.93,517.88,706.6824,529.1721,716.5072,536.0622,721.93,517.88" style="stroke:#181818;stroke-width:1.0;"/></g><!--reverse link Observer to ChronoPanel--><g id="link_Observer_ChronoPanel"><path codeLine="118" d="M973.656,519.4843 C970.376,552.9843 966.82,589.36 962.37,634.82 " fill="none" id="Observer-backto-ChronoPanel" style="stroke:#181818;stroke-width:1.0;stroke-dasharray:7.0,7.0;"/><polygon fill="none" points="975.41,501.57,967.6846,518.8997,979.6274,520.069,975.41,501.57" style="stroke:#181818;stroke-width:1.0;"/></g><!--reverse link ControlPanel to ControlPanelEnd--><g id="link_ControlPanel_ControlPanelEnd"><path codeLine="119" d="M470.8539,340.6036 C424.4239,369.1336 384.96,393.38 341.35,420.18 " fill="none" id="ControlPanel-backto-ControlPanelEnd" style="stroke:#181818;stroke-width:1.0;"/><polygon fill="none" points="486.19,331.18,467.7127,335.4916,473.9951,345.7156,486.19,331.18" style="stroke:#181818;stroke-width:1.0;"/></g><!--reverse link ChronoPanel to Dial--><g id="link_ChronoPanel_Dial"><path codeLine="120" d="M842.4585,809.0601 C791.3485,850.9501 742.07,891.34 686.81,936.63 " fill="none" id="ChronoPanel-backto-Dial" style="stroke:#181818;stroke-width:1.0;"/><polygon fill="none" points="856.38,797.65,838.6551,804.4196,846.2619,813.7006,856.38,797.65" style="stroke:#181818;stroke-width:1.0;"/></g><!--reverse link ChronoPanel to Numeric--><g id="link_ChronoPanel_Numeric"><path codeLine="121" d="M954.5,815.65 C954.5,878.06 954.5,944.46 954.5,996.58 " fill="none" id="ChronoPanel-backto-Numeric" style="stroke:#181818;stroke-width:1.0;"/><polygon fill="none" points="954.5,797.65,948.5,815.65,960.5,815.65,954.5,797.65" style="stroke:#181818;stroke-width:1.0;"/></g><!--link ImageCacheManager to ControlFrame--><!--link ControlPanelEnd to Dial--><!--link ChronoFrame to Subject--><!--link ControlFrame to ChronoFrame--><!--link ChronoFrame to ControlPanel--><!--SRC=[bLPRJzim57xFh_3W9Lq86jfRXP1AAT29jeYMfsb3RkAs7eaTsGwC8VxxV4aSEqaPwqljSxvpyNUEZ_EfO72RGy1p92210N_4f80CvY398ESZ8HXUbm9D4qgM-0y2Nu90Qy28mJLEm6i0G5Hjml6EKK87KdG82YXsuM08bj83sMeHHz9BEgOPPKgZ5rgHOo9Zj1HlTIJZjOfaDg6A4GE1SyI6OAN-j03pkv8G6My8rfHc218ZJeS04w7N9Wa-11dLQSNWbGieSF8611LJYup05ecb0QkaAdW499e99NcYEDMI0fOSUHARXv8scKGoXE73OoO2377K-6oT_5AM0-dZ7xgISCGOVBd1N9mQwIqaA3iRA7EuveB1H03NZzPxVhJ4gLe4oYA5mZ_Bbi5YrvjrAdj693i7VGXI1fzNwBS8hvGPJhYhV49C4WspsmmcA4T4X9UKY1cIBZNGCAzwHwx6D2yeKQ2sguOVQSrerX0KUQ9GUXbqq0qDaIToU8XDaOVWstaf12KwANahrhw4qHmILwJiQE5BT6bzErBcla2HPe_Bmttdr6bEIDgJl9Hs-k5iy9vpbLl2aApsYAJB7NrsM-ko98d0b5IUZe3NOKrwhJwxmB1cLYqzHkqjkvdChrRN3zUB-xlcLbhjT7RrS36TJURBwMBUew-iPzFv_MgoNx-SZ1VpYmztbEtpQGwtkltruh-QLl5y3QjfSLvkDeYXj7OJ0PYQpOgEOR93eTwunNX4BzxzYhL7ar3VPNgjoN_RFrWTJE-CRM5QCzlsdqv2fpsJZyGMCLrahsgZgyd3U3I-bZMPmUBKU3ZoUJZJH5YZcf6m5-oMnfh8aUoQz19jmPWtUQUDHJsExUdcfNm-x5DMxLflsSUwfpCbPGnfYTX6jWvOh3bYJnLvaSjxQ-hQpExKWAdWUlsl5tPlaNixf7k1b-Nw5v8x4n8A8RaBwxpTuwhHlqT5rtnE1TwykEUf7H-S780uFWC7dmyQFeQ0Q8EWFUSi-klniJIeFWI68CMyoA2FRy0d3Z8nYC1z0Nk1bKiWBx0r2eBg8yVznMKH_mHwlWMcFllKUbz5xiDKd7YvLR_ZiZYM2CkGyTHYf_7aQW8RkXFG2HJKJVy-AkZU_FZx3gSf8ZyOtkv4x3sudHJROCsQ-rNJ1bXEt9Uz4x9n45YAB2X3cwuZmwx5o9DwNgeYzGVIjdy1]--></g></svg>